<svg xmlns="http://www.w3.org/2000/svg" style="display:none">


    <symbol id="logo" width="182" height="45" viewBox="0 0 182 45" fill="none" xmlns="http://www.w3.org/2000/svg">
        <path d="M36.8325 29.4022C38.9035 19.2577 32.3165 18.7829 27.5446 14.5693C24.7649 12.1123 23.9814 8.43667 24.9382 5.49699C26.7611 5.86494 28.5919 6.50985 30.2022 7.62163C35.2458 11.0954 37.7814 16.3813 37.8287 16.4802C37.8287 16.4802 38.8051 12.2705 35.1317 7.3882C33.7457 5.54842 31.9228 3.94604 29.8912 2.72348C29.2967 2.3674 28.6785 2.04296 28.0486 1.75018C31.6275 0.0884502 36.9388 0.907445 39.5847 4.48017C45.2425 12.136 42.325 23.4753 36.8325 29.4022Z" fill="#4C7378"/>
        <path d="M36.8325 29.4022C38.9035 19.2577 32.3165 18.7829 27.5446 14.5693C24.7649 12.1123 23.9814 8.43667 24.9382 5.49699C26.7611 5.86494 28.5919 6.50985 30.2022 7.62163C35.2458 11.0954 37.7814 16.3813 37.8287 16.4802C37.8287 16.4802 38.8051 12.2705 35.1317 7.3882C33.7457 5.54842 31.9228 3.94604 29.8912 2.72348C29.2967 2.3674 28.6785 2.04296 28.0486 1.75018C31.6275 0.0884502 36.9388 0.907445 39.5847 4.48017C45.2425 12.136 42.325 23.4753 36.8325 29.4022Z" fill="black"/>
        <path d="M36.8325 29.4022C38.9035 19.2577 32.3165 18.7829 27.5446 14.5693C24.7649 12.1123 23.9814 8.43667 24.9382 5.49699C26.7611 5.86494 28.5919 6.50985 30.2022 7.62163C35.2458 11.0954 37.7814 16.3813 37.8287 16.4802C37.8287 16.4802 38.8051 12.2705 35.1317 7.3882C33.7457 5.54842 31.9228 3.94604 29.8912 2.72348C29.2967 2.3674 28.6785 2.04296 28.0486 1.75018C31.6275 0.0884502 36.9388 0.907445 39.5847 4.48017C45.2425 12.136 42.325 23.4753 36.8325 29.4022Z" fill="#4C7378"/>
        <path d="M71.7479 44.1322C66.287 38.0471 58.3771 35.2459 50.3412 36.6782C47.7229 37.0897 45.1598 37.79 42.6085 38.5219C37.998 39.875 33.0922 41.3152 28.1982 41.7109C19.9261 42.5061 11.1185 40.3577 5.43706 33.877C2.90542 30.9887 1.37778 27.4477 0.921056 23.6415C0.480086 19.9738 1.10611 16.1123 2.66919 12.7651C5.31894 7.09147 10.5751 2.78679 16.6503 1.44554C18.7685 0.982628 20.9813 0.895585 23.1192 1.25563C27.5407 1.97175 31.6708 4.46435 34.356 7.98959C35.801 9.87289 36.8444 12.0846 37.2617 14.4268C37.116 14.1103 36.99 13.7938 36.8286 13.4891C33.8245 7.35655 26.7572 3.41588 20.0206 4.37731C18.8079 4.55535 17.6149 4.88374 16.481 5.33874C12.5438 6.93321 9.23255 10.047 7.40174 13.8967C6.03552 16.7968 5.58668 20.144 6.09064 23.3092C6.12608 23.4793 6.19301 23.8354 6.22451 24.0055C7.27181 29.509 12.0083 33.5051 17.048 35.3172C17.8275 35.5981 18.6229 35.8236 19.426 36.0175C22.1782 36.6703 25.0287 36.8365 27.8557 36.698C35.3088 36.4092 42.4785 33.6356 49.975 33.1727C51.4121 33.0857 52.8768 33.0896 54.3139 33.2202C61.4009 33.7899 68.2044 37.9047 71.7479 44.1322Z" fill="#4C7378"/>
        <path fill-rule="evenodd" clip-rule="evenodd" d="M2.66797 27.2805C3.11697 27.0056 3.5629 26.7311 4.00577 26.4585L4.01031 26.4557C6.27908 25.0781 8.56758 23.728 10.9853 22.642C18.361 19.1455 26.7292 19.7664 33.5991 24.1999C28.5416 19.1244 20.895 16.9451 13.9079 18.2604C12.4871 18.5127 11.073 18.8943 9.7095 19.3565C7.27908 20.1834 4.95654 21.2608 2.66797 22.4102V27.2805Z" fill="#4C7378"/>
        <path d="M168.341 33.6733C166.076 33.6733 164.308 33.2163 163.036 32.3024C161.778 31.3884 160.99 29.9776 160.672 28.0702C160.619 27.4874 160.738 27.0502 161.03 26.7588C161.321 26.4674 161.745 26.3217 162.301 26.3217C162.858 26.3217 163.262 26.4542 163.513 26.7191C163.778 26.984 163.957 27.3946 164.05 27.951C164.248 28.865 164.672 29.4942 165.321 29.8386C165.984 30.1697 166.99 30.3353 168.341 30.3353H174.064C175.773 30.3353 176.932 30.0306 177.541 29.4213C178.163 28.7987 178.475 27.6463 178.475 25.9641C178.475 24.2553 178.157 23.0896 177.521 22.4671C176.885 21.8312 175.733 21.5133 174.064 21.5133H169.136C166.633 21.5133 164.772 20.904 163.553 19.6854C162.348 18.4535 161.745 16.5858 161.745 14.0822C161.745 11.5919 162.341 9.7441 163.533 8.53869C164.738 7.33329 166.593 6.73059 169.096 6.73059H173.825C175.931 6.73059 177.581 7.16109 178.773 8.02209C179.978 8.8831 180.74 10.2011 181.058 11.9761C181.137 12.5457 181.031 12.9828 180.74 13.2875C180.448 13.5789 180.011 13.7246 179.428 13.7246C178.899 13.7246 178.501 13.5855 178.236 13.3073C177.971 13.0292 177.799 12.6251 177.72 12.0953C177.508 11.3138 177.104 10.7839 176.508 10.5058C175.912 10.2143 175.018 10.0686 173.825 10.0686H169.096C167.507 10.0686 166.441 10.3534 165.898 10.923C165.354 11.4793 165.083 12.5324 165.083 14.0822C165.083 15.6453 165.361 16.7182 165.917 17.301C166.474 17.8839 167.547 18.1753 169.136 18.1753H174.064C176.673 18.1753 178.614 18.8111 179.885 20.0827C181.17 21.3544 181.813 23.3148 181.813 25.9641C181.813 28.6 181.177 30.5472 179.905 31.8056C178.634 33.0508 176.687 33.6733 174.064 33.6733H168.341Z" fill="white"/>
        <path d="M148.84 33.6733C148.283 33.6733 147.866 33.5342 147.588 33.2561C147.31 32.9779 147.171 32.5606 147.171 32.0043V10.1084H139.461C138.905 10.1084 138.488 9.96928 138.21 9.69111C137.932 9.41294 137.792 8.99568 137.792 8.43934C137.792 7.88301 137.932 7.46575 138.21 7.18758C138.488 6.90941 138.905 6.77032 139.461 6.77032H158.218C158.774 6.77032 159.192 6.90941 159.47 7.18758C159.748 7.46575 159.887 7.88301 159.887 8.43934C159.887 8.99568 159.748 9.41294 159.47 9.69111C159.192 9.96928 158.774 10.1084 158.218 10.1084H150.509V32.0043C150.509 32.5342 150.363 32.9448 150.072 33.2362C149.794 33.5276 149.383 33.6733 148.84 33.6733Z" fill="white"/>
        <path d="M137.615 33.7528C137.177 34.031 136.76 34.1171 136.363 34.0111C135.965 33.9051 135.628 33.6336 135.349 33.1965L129.19 22.9439H123.627V32.0043C123.627 33.117 123.07 33.6733 121.958 33.6733C120.845 33.6733 120.289 33.117 120.289 32.0043V8.39961C120.289 7.28693 120.845 6.73059 121.958 6.73059H131.256C133.68 6.73059 135.535 7.37965 136.82 8.67778C138.118 9.96266 138.767 11.8171 138.767 14.2412V15.4333C138.767 17.5395 138.277 19.2217 137.297 20.4801C136.316 21.7253 134.899 22.5002 133.045 22.8048L138.25 31.4877C138.754 32.4149 138.542 33.17 137.615 33.7528ZM123.627 19.6059H131.256C132.766 19.6059 133.839 19.288 134.475 18.6522C135.111 18.0163 135.429 16.9434 135.429 15.4333V14.2412C135.429 12.7444 135.111 11.678 134.475 11.0422C133.839 10.3932 132.766 10.0686 131.256 10.0686H123.627V19.6059Z" fill="white"/>
        <path d="M113.931 33.6733C113.361 33.6733 112.937 33.5409 112.659 33.2759C112.394 32.9978 112.262 32.5739 112.262 32.0043V8.43934C112.262 7.85651 112.394 7.43263 112.659 7.16771C112.937 6.90279 113.361 6.77032 113.931 6.77032C114.514 6.77032 114.937 6.90279 115.202 7.16771C115.467 7.43263 115.6 7.85651 115.6 8.43934V32.0043C115.6 32.5739 115.467 32.9978 115.202 33.2759C114.937 33.5409 114.514 33.6733 113.931 33.6733Z" fill="white"/>
        <path d="M93.1363 33.6733C92.0236 33.6733 91.4673 33.117 91.4673 32.0043V8.39961C91.4673 7.28693 92.0236 6.73059 93.1363 6.73059H102.435C104.859 6.73059 106.714 7.37965 107.999 8.67778C109.297 9.96266 109.946 11.8171 109.946 14.2412V15.4333C109.946 17.8574 109.297 19.7185 107.999 21.0166C106.714 22.3015 104.859 22.9439 102.435 22.9439H94.8053V32.0043C94.8053 33.117 94.249 33.6733 93.1363 33.6733ZM94.8053 19.6059H102.435C103.945 19.6059 105.018 19.288 105.654 18.6522C106.29 18.0163 106.608 16.9434 106.608 15.4333V14.2412C106.608 12.7444 106.29 11.678 105.654 11.0422C105.018 10.3932 103.945 10.0686 102.435 10.0686H94.8053V19.6059Z" fill="white"/>
        <path d="M74.0801 33.6733C71.0468 33.6733 68.8015 32.9514 67.3445 31.5076C65.9006 30.0505 65.1787 27.8053 65.1787 24.7719V15.5923C65.1787 12.5324 65.9073 10.2872 67.3643 8.8566C68.8214 7.41277 71.06 6.7041 74.0801 6.73059H78.8488C81.8954 6.73059 84.1406 7.45251 85.5845 8.89634C87.0283 10.3402 87.7502 12.5854 87.7502 15.632V24.7719C87.7502 27.8053 87.0283 30.0505 85.5845 31.5076C84.1406 32.9514 81.8954 33.6733 78.8488 33.6733H74.0801ZM74.0801 30.3353H78.8488C80.2661 30.3353 81.3788 30.1697 82.1868 29.8386C82.9948 29.4942 83.5644 28.918 83.8956 28.1099C84.24 27.3019 84.4122 26.1892 84.4122 24.7719V15.632C84.4122 14.2279 84.24 13.1219 83.8956 12.3139C83.5644 11.5058 82.9948 10.9296 82.1868 10.5852C81.3788 10.2408 80.2661 10.0686 78.8488 10.0686H74.0801C72.6761 10.0554 71.57 10.2143 70.762 10.5455C69.954 10.8766 69.3778 11.4462 69.0333 12.2542C68.6889 13.0623 68.5167 14.1749 68.5167 15.5923V24.7719C68.5167 26.1892 68.6823 27.3019 69.0135 28.1099C69.3579 28.918 69.9341 29.4942 70.7421 29.8386C71.5501 30.1697 72.6628 30.3353 74.0801 30.3353Z" fill="#4C7378"/>
        <path d="M48.0548 33.6735C46.9421 33.6735 46.3857 33.1172 46.3857 32.0045V8.39982C46.3857 7.28714 46.9421 6.7308 48.0548 6.7308C49.1674 6.7308 49.7238 7.28714 49.7238 8.39982V17.8377L59.8571 7.36662C60.6254 6.54536 61.4069 6.53211 62.2017 7.32688C63.023 8.09516 63.0362 8.87669 62.2414 9.67146L53.797 18.3941L63.7515 30.7726C64.427 31.6601 64.3476 32.4416 63.5131 33.1172C62.6521 33.8193 61.8705 33.7398 61.1685 32.8788L51.4524 20.838L49.7238 22.6262V32.0045C49.7238 33.1172 49.1674 33.6735 48.0548 33.6735Z" fill="#4C7378"/>
    </symbol>


</svg>