<svg xmlns="http://www.w3.org/2000/svg" style="display:none">


    <symbol id="logo" width="182" height="45" viewBox="0 0 182 45" fill="none" xmlns="http://www.w3.org/2000/svg">
        <path d="M36.0493 28.4769C38.1203 18.3324 31.5333 17.8576 26.7614 13.6439C23.9817 11.1869 23.1982 7.51135 24.155 4.57167C25.9779 4.93962 27.8087 5.58453 29.419 6.69631C34.4626 10.1701 36.9982 15.456 37.0455 15.5549C37.0455 15.5549 38.0219 11.3452 34.3485 6.46287C32.9625 4.6231 31.1396 3.02072 29.108 1.79816C28.5135 1.44207 27.8953 1.11764 27.2654 0.824858C30.8443 -0.836873 36.1556 -0.0178782 38.8015 3.55484C44.4593 11.2107 41.5418 22.55 36.0493 28.4769Z" fill="#4C7378"/>
        <path d="M36.0493 28.4769C38.1203 18.3324 31.5333 17.8576 26.7614 13.6439C23.9817 11.1869 23.1982 7.51135 24.155 4.57167C25.9779 4.93962 27.8087 5.58453 29.419 6.69631C34.4626 10.1701 36.9982 15.456 37.0455 15.5549C37.0455 15.5549 38.0219 11.3452 34.3485 6.46287C32.9625 4.6231 31.1396 3.02072 29.108 1.79816C28.5135 1.44207 27.8953 1.11764 27.2654 0.824858C30.8443 -0.836873 36.1556 -0.0178782 38.8015 3.55484C44.4593 11.2107 41.5418 22.55 36.0493 28.4769Z" fill="black"/>
        <path d="M36.0493 28.4769C38.1203 18.3324 31.5333 17.8576 26.7614 13.6439C23.9817 11.1869 23.1982 7.51135 24.155 4.57167C25.9779 4.93962 27.8087 5.58453 29.419 6.69631C34.4626 10.1701 36.9982 15.456 37.0455 15.5549C37.0455 15.5549 38.0219 11.3452 34.3485 6.46287C32.9625 4.6231 31.1396 3.02072 29.108 1.79816C28.5135 1.44207 27.8953 1.11764 27.2654 0.824858C30.8443 -0.836873 36.1556 -0.0178782 38.8015 3.55484C44.4593 11.2107 41.5418 22.55 36.0493 28.4769Z" fill="#4C7378"/>
        <path d="M70.9647 43.2069C65.5038 37.1218 57.5939 34.3206 49.558 35.7529C46.9397 36.1644 44.3766 36.8647 41.8253 37.5966C37.2148 38.9497 32.309 40.3899 27.415 40.7856C19.1429 41.5808 10.3353 39.4324 4.65386 32.9517C2.12222 30.0634 0.594572 26.5224 0.137853 22.7162C-0.303117 19.0485 0.322903 15.187 1.88598 11.8398C4.53574 6.16616 9.79195 1.86149 15.8671 0.520231C17.9853 0.0573199 20.198 -0.0297233 22.336 0.330318C26.7575 1.04645 30.8876 3.53904 33.5728 7.06429C35.0178 8.94758 36.0612 11.1593 36.4785 13.5015C36.3328 13.185 36.2068 12.8685 36.0454 12.5638C33.0413 6.43125 25.974 2.49057 19.2374 3.452C18.0247 3.63004 16.8317 3.95843 15.6978 4.41343C11.7606 6.0079 8.44935 9.12167 6.61854 12.9713C5.25232 15.8715 4.80347 19.2187 5.30744 22.3839C5.34287 22.554 5.40981 22.9101 5.4413 23.0802C6.48861 28.5837 11.2251 32.5798 16.2648 34.3918C17.0443 34.6728 17.8396 34.8983 18.6428 35.0922C21.395 35.745 24.2455 35.9111 27.0725 35.7727C34.5256 35.4838 41.6953 32.7103 49.1918 32.2474C50.6289 32.1604 52.0936 32.1643 53.5307 32.2949C60.6177 32.8646 67.4212 36.9794 70.9647 43.2069Z" fill="#4C7378"/>
        <path fill-rule="evenodd" clip-rule="evenodd" d="M1.88477 26.3552C2.33377 26.0803 2.7797 25.8058 3.22256 25.5332L3.2271 25.5304C5.49588 24.1528 7.78438 22.8027 10.2021 21.7167C17.5778 18.2202 25.946 18.8411 32.8159 23.2746C27.7584 18.1991 20.1118 16.0198 13.1247 17.3351C11.7039 17.5874 10.2898 17.969 8.9263 18.4311C6.49588 19.2581 4.17334 20.3355 1.88477 21.4849V26.3552Z" fill="#4C7378"/>
        <path d="M167.558 32.748C165.293 32.748 163.525 32.291 162.253 31.377C160.995 30.4631 160.207 29.0523 159.889 27.1449C159.836 26.5621 159.955 26.1249 160.246 25.8335C160.538 25.5421 160.962 25.3964 161.518 25.3964C162.074 25.3964 162.478 25.5289 162.73 25.7938C162.995 26.0587 163.174 26.4693 163.266 27.0257C163.465 27.9397 163.889 28.5688 164.538 28.9132C165.2 29.2444 166.207 29.41 167.558 29.41H173.281C174.989 29.41 176.148 29.1053 176.758 28.496C177.38 27.8734 177.692 26.721 177.692 25.0387C177.692 23.33 177.374 22.1643 176.738 21.5417C176.102 20.9059 174.95 20.588 173.281 20.588H168.353C165.849 20.588 163.988 19.9787 162.77 18.7601C161.564 17.5282 160.962 15.6604 160.962 13.1569C160.962 10.6666 161.558 8.81879 162.75 7.61339C163.955 6.40798 165.81 5.80528 168.313 5.80528H173.042C175.148 5.80528 176.797 6.23578 177.99 7.09679C179.195 7.95779 179.957 9.27578 180.275 11.0508C180.354 11.6204 180.248 12.0575 179.957 12.3621C179.665 12.6536 179.228 12.7993 178.645 12.7993C178.115 12.7993 177.718 12.6602 177.453 12.382C177.188 12.1038 177.016 11.6998 176.937 11.17C176.725 10.3885 176.321 9.85861 175.725 9.58045C175.128 9.28903 174.234 9.14332 173.042 9.14332H168.313C166.724 9.14332 165.657 9.42811 165.114 9.9977C164.571 10.554 164.3 11.6071 164.3 13.1569C164.3 14.72 164.578 15.7929 165.134 16.3757C165.691 16.9586 166.763 17.25 168.353 17.25H173.281C175.89 17.25 177.831 17.8858 179.102 19.1574C180.387 20.4291 181.03 22.3895 181.03 25.0387C181.03 27.6747 180.394 29.6219 179.122 30.8803C177.851 32.1255 175.903 32.748 173.281 32.748H167.558Z" fill="white"/>
        <path d="M148.057 32.748C147.5 32.748 147.083 32.6089 146.805 32.3308C146.527 32.0526 146.388 31.6353 146.388 31.079V9.18306H138.678C138.122 9.18306 137.705 9.04397 137.427 8.7658C137.148 8.48763 137.009 8.07038 137.009 7.51404C137.009 6.9577 137.148 6.54044 137.427 6.26227C137.705 5.9841 138.122 5.84502 138.678 5.84502H157.435C157.991 5.84502 158.408 5.9841 158.687 6.26227C158.965 6.54044 159.104 6.9577 159.104 7.51404C159.104 8.07038 158.965 8.48763 158.687 8.7658C158.408 9.04397 157.991 9.18306 157.435 9.18306H149.726V31.079C149.726 31.6088 149.58 32.0195 149.288 32.3109C149.01 32.6023 148.6 32.748 148.057 32.748Z" fill="white"/>
        <path d="M136.831 32.8275C136.394 33.1057 135.977 33.1918 135.58 33.0858C135.182 32.9798 134.844 32.7083 134.566 32.2712L128.407 22.0186H122.843V31.079C122.843 32.1917 122.287 32.748 121.174 32.748C120.062 32.748 119.505 32.1917 119.505 31.079V7.4743C119.505 6.36162 120.062 5.80528 121.174 5.80528H130.473C132.897 5.80528 134.752 6.45435 136.037 7.75247C137.335 9.03735 137.984 10.8918 137.984 13.3159V14.508C137.984 16.6142 137.494 18.2964 136.513 19.5548C135.533 20.8 134.116 21.5749 132.261 21.8795L137.467 30.5624C137.971 31.4896 137.759 32.2447 136.831 32.8275ZM122.843 18.6806H130.473C131.983 18.6806 133.056 18.3627 133.692 17.7268C134.328 17.091 134.646 16.0181 134.646 14.508V13.3159C134.646 11.819 134.328 10.7527 133.692 10.1169C133.056 9.46785 131.983 9.14332 130.473 9.14332H122.843V18.6806Z" fill="white"/>
        <path d="M113.148 32.748C112.578 32.748 112.154 32.6156 111.876 32.3506C111.611 32.0725 111.479 31.6486 111.479 31.079V7.51404C111.479 6.9312 111.611 6.50733 111.876 6.2424C112.154 5.97748 112.578 5.84502 113.148 5.84502C113.73 5.84502 114.154 5.97748 114.419 6.2424C114.684 6.50733 114.817 6.9312 114.817 7.51404V31.079C114.817 31.6486 114.684 32.0725 114.419 32.3506C114.154 32.6156 113.73 32.748 113.148 32.748Z" fill="white"/>
        <path d="M92.3531 32.748C91.2404 32.748 90.6841 32.1917 90.6841 31.079V7.4743C90.6841 6.36162 91.2404 5.80528 92.3531 5.80528H101.652C104.076 5.80528 105.93 6.45435 107.215 7.75247C108.513 9.03735 109.163 10.8918 109.163 13.3159V14.508C109.163 16.9321 108.513 18.7932 107.215 20.0913C105.93 21.3762 104.076 22.0186 101.652 22.0186H94.0221V31.079C94.0221 32.1917 93.4658 32.748 92.3531 32.748ZM94.0221 18.6806H101.652C103.162 18.6806 104.235 18.3627 104.871 17.7268C105.507 17.091 105.824 16.0181 105.824 14.508V13.3159C105.824 11.819 105.507 10.7527 104.871 10.1169C104.235 9.46785 103.162 9.14332 101.652 9.14332H94.0221V18.6806Z" fill="white"/>
        <path d="M73.2969 32.748C70.2636 32.748 68.0183 32.0261 66.5613 30.5823C65.1174 29.1252 64.3955 26.88 64.3955 23.8466V14.667C64.3955 11.6071 65.124 9.36188 66.5811 7.93129C68.0382 6.48746 70.2768 5.77879 73.2969 5.80528H78.0656C81.1122 5.80528 83.3574 6.5272 84.8013 7.97103C86.2451 9.41487 86.967 11.6601 86.967 14.7067V23.8466C86.967 26.88 86.2451 29.1252 84.8013 30.5823C83.3574 32.0261 81.1122 32.748 78.0656 32.748H73.2969ZM73.2969 29.41H78.0656C79.4829 29.41 80.5956 29.2444 81.4036 28.9132C82.2116 28.5688 82.7812 27.9926 83.1124 27.1846C83.4568 26.3766 83.629 25.2639 83.629 23.8466V14.7067C83.629 13.3026 83.4568 12.1966 83.1124 11.3885C82.7812 10.5805 82.2116 10.0043 81.4036 9.65992C80.5956 9.31552 79.4829 9.14332 78.0656 9.14332H73.2969C71.8928 9.13007 70.7868 9.28903 69.9788 9.62018C69.1708 9.95134 68.5945 10.5209 68.2501 11.3289C67.9057 12.137 67.7335 13.2496 67.7335 14.667V23.8466C67.7335 25.2639 67.8991 26.3766 68.2303 27.1846C68.5747 27.9926 69.1509 28.5688 69.9589 28.9132C70.7669 29.2444 71.8796 29.41 73.2969 29.41Z" fill="#4C7378"/>
        <path d="M47.2716 32.7483C46.1589 32.7483 45.6025 32.1919 45.6025 31.0792V7.47453C45.6025 6.36185 46.1589 5.80551 47.2716 5.80551C48.3842 5.80551 48.9406 6.36185 48.9406 7.47453V16.9124L59.0739 6.44133C59.8422 5.62006 60.6237 5.60682 61.4185 6.40159C62.2397 7.16987 62.253 7.95139 61.4582 8.74616L53.0138 17.4688L62.9683 29.8473C63.6438 30.7348 63.5644 31.5164 62.7299 32.1919C61.8689 32.894 61.0873 32.8145 60.3853 31.9535L50.6692 19.9127L48.9406 21.7009V31.0792C48.9406 32.1919 48.3842 32.7483 47.2716 32.7483Z" fill="#4C7378"/>
    </symbol>


    <symbol id="logo-mobile" xmlns="http://www.w3.org/2000/svg" width="135" height="33" viewBox="0 0 135 33" fill="none">
        <path d="M27.2258 21.9452C28.7536 14.4616 23.8943 14.1113 20.3741 11.0029C18.3235 9.19032 17.7455 6.47881 18.4513 4.31019C19.7961 4.58164 21.1467 5.05739 22.3346 5.87756C26.0553 8.4402 27.9258 12.3396 27.9607 12.4126C27.9607 12.4126 28.681 9.30707 25.9711 5.70535C24.9487 4.34814 23.6039 3.16605 22.1052 2.26416C21.6666 2.00148 21.2106 1.76214 20.7458 1.54615C23.3861 0.320287 27.3042 0.924464 29.2561 3.56008C33.4299 9.20783 31.2776 17.5729 27.2258 21.9452Z" fill="#4C7378"/>
        <path d="M27.2258 21.9452C28.7536 14.4616 23.8943 14.1113 20.3741 11.0029C18.3235 9.19032 17.7455 6.47881 18.4513 4.31019C19.7961 4.58164 21.1467 5.05739 22.3346 5.87756C26.0553 8.4402 27.9258 12.3396 27.9607 12.4126C27.9607 12.4126 28.681 9.30707 25.9711 5.70535C24.9487 4.34814 23.6039 3.16605 22.1052 2.26416C21.6666 2.00148 21.2106 1.76214 20.7458 1.54615C23.3861 0.320287 27.3042 0.924464 29.2561 3.56008C33.4299 9.20783 31.2776 17.5729 27.2258 21.9452Z" fill="black"/>
        <path d="M27.2258 21.9452C28.7536 14.4616 23.8943 14.1113 20.3741 11.0029C18.3235 9.19032 17.7455 6.47881 18.4513 4.31019C19.7961 4.58164 21.1467 5.05739 22.3346 5.87756C26.0553 8.4402 27.9258 12.3396 27.9607 12.4126C27.9607 12.4126 28.681 9.30707 25.9711 5.70535C24.9487 4.34814 23.6039 3.16605 22.1052 2.26416C21.6666 2.00148 21.2106 1.76214 20.7458 1.54615C23.3861 0.320287 27.3042 0.924464 29.2561 3.56008C33.4299 9.20783 31.2776 17.5729 27.2258 21.9452Z" fill="#4C7378"/>
        <path d="M52.9829 32.8119C48.9543 28.3228 43.1192 26.2564 37.191 27.313C35.2595 27.6165 33.3687 28.1331 31.4866 28.6731C28.0854 29.6713 24.4663 30.7337 20.856 31.0256C14.7536 31.6123 8.25623 30.0274 4.06501 25.2465C2.19741 23.1158 1.07045 20.5036 0.733531 17.6957C0.408225 14.9901 0.870043 12.1414 2.02314 9.67214C3.97788 5.48668 7.85541 2.31109 12.3371 1.32164C13.8997 0.980151 15.532 0.915939 17.1092 1.18154C20.371 1.70983 23.4178 3.54864 25.3987 6.14923C26.4646 7.53855 27.2343 9.17012 27.5422 10.898C27.4348 10.6645 27.3418 10.431 27.2227 10.2063C25.0066 5.68223 19.793 2.77517 14.8233 3.48443C13.9288 3.61577 13.0487 3.85802 12.2122 4.19368C9.30767 5.36993 6.86497 7.66697 5.51437 10.5069C4.5065 12.6463 4.17538 15.1156 4.54716 17.4506C4.5733 17.5761 4.62268 17.8388 4.64592 17.9643C5.41852 22.0242 8.91265 24.9721 12.6304 26.3089C13.2055 26.5161 13.7922 26.6825 14.3848 26.8255C16.415 27.3071 18.5179 27.4297 20.6033 27.3276C26.1016 27.1145 31.3907 25.0685 36.9209 24.727C37.9811 24.6628 39.0615 24.6657 40.1217 24.762C45.3498 25.1823 50.3688 28.2178 52.9829 32.8119Z" fill="#4C7378"/>
        <path fill-rule="evenodd" clip-rule="evenodd" d="M2.02246 20.38C2.35369 20.1772 2.68266 19.9747 3.00936 19.7736L3.01271 19.7716C4.6864 18.7553 6.37464 17.7593 8.15817 16.9582C13.5993 14.3788 19.7726 14.8368 24.8405 18.1074C21.1096 14.3632 15.4687 12.7555 10.3142 13.7259C9.26609 13.9119 8.22292 14.1935 7.21704 14.5344C5.42411 15.1445 3.71075 15.9392 2.02246 16.7872V20.38Z" fill="#4C7378"/>
        <path d="M124.241 25.096C122.57 25.096 121.266 24.7589 120.327 24.0847C119.399 23.4104 118.818 22.3697 118.583 20.9626C118.544 20.5326 118.632 20.2101 118.847 19.9952C119.062 19.7802 119.375 19.6727 119.785 19.6727C120.196 19.6727 120.494 19.7704 120.679 19.9658C120.875 20.1613 121.007 20.4642 121.075 20.8746C121.222 21.5489 121.534 22.013 122.013 22.2671C122.502 22.5114 123.244 22.6335 124.241 22.6335H128.463C129.723 22.6335 130.578 22.4088 131.028 21.9593C131.487 21.5 131.717 20.6499 131.717 19.4089C131.717 18.1483 131.482 17.2884 131.013 16.8291C130.544 16.3601 129.694 16.1255 128.463 16.1255H124.827C122.981 16.1255 121.608 15.676 120.709 14.777C119.819 13.8683 119.375 12.4904 119.375 10.6436C119.375 8.80647 119.814 7.44331 120.694 6.55408C121.583 5.66485 122.951 5.22023 124.798 5.22023H128.287C129.84 5.22023 131.057 5.53781 131.936 6.17298C132.826 6.80814 133.387 7.78044 133.622 9.08986C133.681 9.51004 133.602 9.83251 133.387 10.0573C133.173 10.2722 132.85 10.3797 132.42 10.3797C132.029 10.3797 131.736 10.2771 131.541 10.0719C131.345 9.86671 131.218 9.56867 131.16 9.1778C131.003 8.60127 130.705 8.2104 130.265 8.00519C129.826 7.79021 129.166 7.68272 128.287 7.68272H124.798C123.625 7.68272 122.839 7.89281 122.438 8.313C122.038 8.72341 121.837 9.50027 121.837 10.6436C121.837 11.7966 122.042 12.5882 122.453 13.0181C122.863 13.4481 123.655 13.663 124.827 13.663H128.463C130.388 13.663 131.819 14.1321 132.757 15.0702C133.705 16.0083 134.179 17.4545 134.179 19.4089C134.179 21.3534 133.71 22.7899 132.772 23.7182C131.834 24.6368 130.397 25.096 128.463 25.096H124.241Z" fill="white"/>
        <path d="M109.854 25.096C109.443 25.096 109.136 24.9934 108.93 24.7882C108.725 24.583 108.623 24.2752 108.623 23.8648V7.71203H102.935C102.525 7.71203 102.217 7.60943 102.012 7.40422C101.807 7.19901 101.704 6.8912 101.704 6.48079C101.704 6.07037 101.807 5.76256 102.012 5.55735C102.217 5.35215 102.525 5.24954 102.935 5.24954H116.772C117.183 5.24954 117.49 5.35215 117.696 5.55735C117.901 5.76256 118.003 6.07037 118.003 6.48079C118.003 6.8912 117.901 7.19901 117.696 7.40422C117.49 7.60943 117.183 7.71203 116.772 7.71203H111.085V23.8648C111.085 24.2557 110.978 24.5586 110.763 24.7736C110.557 24.9885 110.254 25.096 109.854 25.096Z" fill="white"/>
        <path d="M101.573 25.1547C101.251 25.3599 100.943 25.4234 100.65 25.3452C100.357 25.267 100.108 25.0667 99.9025 24.7442L95.3586 17.1809H91.2545V23.8648C91.2545 24.6856 90.8441 25.096 90.0232 25.096C89.2024 25.096 88.792 24.6856 88.792 23.8648V6.45147C88.792 5.63064 89.2024 5.22023 90.0232 5.22023H96.883C98.6713 5.22023 100.039 5.69905 100.987 6.65668C101.945 7.60455 102.424 8.97259 102.424 10.7608V11.6403C102.424 13.194 102.062 14.435 101.339 15.3633C100.616 16.2819 99.5703 16.8535 98.2022 17.0783L102.043 23.4837C102.414 24.1677 102.258 24.7247 101.573 25.1547ZM91.2545 14.7184H96.883C97.997 14.7184 98.7885 14.4839 99.2576 14.0148C99.7266 13.5458 99.9611 12.7543 99.9611 11.6403V10.7608C99.9611 9.65662 99.7266 8.86999 99.2576 8.40094C98.7885 7.92213 97.997 7.68272 96.883 7.68272H91.2545V14.7184Z" fill="white"/>
        <path d="M84.1014 25.096C83.6812 25.096 83.3685 24.9983 83.1633 24.8029C82.9678 24.5977 82.8701 24.285 82.8701 23.8648V6.48079C82.8701 6.05083 82.9678 5.73813 83.1633 5.5427C83.3685 5.34726 83.6812 5.24954 84.1014 5.24954C84.5313 5.24954 84.844 5.34726 85.0395 5.5427C85.2349 5.73813 85.3326 6.05083 85.3326 6.48079V23.8648C85.3326 24.285 85.2349 24.5977 85.0395 24.8029C84.844 24.9983 84.5313 25.096 84.1014 25.096Z" fill="white"/>
        <path d="M68.7605 25.096C67.9397 25.096 67.5293 24.6856 67.5293 23.8648V6.45147C67.5293 5.63064 67.9397 5.22023 68.7605 5.22023H75.6203C77.4086 5.22023 78.7766 5.69905 79.7245 6.65668C80.6821 7.60455 81.1609 8.97259 81.1609 10.7608V11.6403C81.1609 13.4285 80.6821 14.8015 79.7245 15.7591C78.7766 16.707 77.4086 17.1809 75.6203 17.1809H69.9918V23.8648C69.9918 24.6856 69.5814 25.096 68.7605 25.096ZM69.9918 14.7184H75.6203C76.7343 14.7184 77.5258 14.4839 77.9949 14.0148C78.4639 13.5458 78.6984 12.7543 78.6984 11.6403V10.7608C78.6984 9.65662 78.4639 8.86999 77.9949 8.40094C77.5258 7.92213 76.7343 7.68272 75.6203 7.68272H69.9918V14.7184Z" fill="white"/>
        <path d="M54.7034 25.096C52.4656 25.096 50.8093 24.5635 49.7344 23.4983C48.6693 22.4234 48.1367 20.7671 48.1367 18.5294V11.7575C48.1367 9.50027 48.6742 7.84395 49.7491 6.78859C50.824 5.72347 52.4754 5.20068 54.7034 5.22022H58.2212C60.4687 5.22022 62.125 5.75279 63.1901 6.81791C64.2553 7.88303 64.7878 9.53935 64.7878 11.7869V18.5294C64.7878 20.7671 64.2553 22.4234 63.1901 23.4983C62.125 24.5635 60.4687 25.096 58.2212 25.096H54.7034ZM54.7034 22.6335H58.2212C59.2668 22.6335 60.0876 22.5114 60.6837 22.2671C61.2798 22.013 61.7 21.588 61.9442 20.9919C62.1983 20.3958 62.3253 19.575 62.3253 18.5294V11.7869C62.3253 10.7511 62.1983 9.93511 61.9442 9.33903C61.7 8.74295 61.2798 8.31788 60.6837 8.06381C60.0876 7.80975 59.2668 7.68271 58.2212 7.68271H54.7034C53.6675 7.67294 52.8516 7.7902 52.2555 8.0345C51.6594 8.27879 51.2344 8.69898 50.9803 9.29506C50.7262 9.89114 50.5992 10.712 50.5992 11.7575V18.5294C50.5992 19.575 50.7214 20.3958 50.9657 20.9919C51.2197 21.588 51.6448 22.013 52.2409 22.2671C52.8369 22.5114 53.6578 22.6335 54.7034 22.6335Z" fill="#4C7378"/>
        <path d="M35.5047 25.0962C34.6839 25.0962 34.2734 24.6858 34.2734 23.8649V6.45163C34.2734 5.6308 34.6839 5.22038 35.5047 5.22038C36.3255 5.22038 36.7359 5.6308 36.7359 6.45163V13.414L44.2113 5.68943C44.7781 5.08358 45.3546 5.07381 45.9409 5.66011C46.5468 6.22688 46.5566 6.80341 45.9703 7.38972L39.7407 13.8244L47.0842 22.9562C47.5826 23.6109 47.524 24.1874 46.9084 24.6858C46.2732 25.2037 45.6967 25.145 45.1787 24.5099L38.0111 15.6273L36.7359 16.9465V23.8649C36.7359 24.6858 36.3255 25.0962 35.5047 25.0962Z" fill="#4C7378"/>
    </symbol>

    <symbol id="logo-dark" xmlns="http://www.w3.org/2000/svg" width="191" height="46" viewBox="0 0 191 46" fill="none">
        <path d="M38.0623 30.4943C40.2415 19.8197 33.3103 19.3202 28.289 14.8863C25.3641 12.3009 24.5397 8.4333 25.5464 5.34002C27.4646 5.7272 29.3911 6.40581 31.0855 7.57568C36.3927 11.231 39.0607 16.7931 39.1104 16.8972C39.1104 16.8972 40.1379 12.4675 36.2725 7.33004C34.8142 5.39414 32.896 3.70803 30.7582 2.42159C30.1326 2.0469 29.4822 1.70552 28.8193 1.39744C32.5853 -0.351121 38.1741 0.510668 40.9582 4.27007C46.9116 12.3259 43.8417 24.2578 38.0623 30.4943Z" fill="#4C7378"/>
        <path d="M38.0623 30.4943C40.2415 19.8197 33.3103 19.3202 28.289 14.8863C25.3641 12.3009 24.5397 8.4333 25.5464 5.34002C27.4646 5.7272 29.3911 6.40581 31.0855 7.57568C36.3927 11.231 39.0607 16.7931 39.1104 16.8972C39.1104 16.8972 40.1379 12.4675 36.2725 7.33004C34.8142 5.39414 32.896 3.70803 30.7582 2.42159C30.1326 2.0469 29.4822 1.70552 28.8193 1.39744C32.5853 -0.351121 38.1741 0.510668 40.9582 4.27007C46.9116 12.3259 43.8417 24.2578 38.0623 30.4943Z" fill="black"/>
        <path d="M38.0623 30.4943C40.2415 19.8197 33.3103 19.3202 28.289 14.8863C25.3641 12.3009 24.5397 8.4333 25.5464 5.34002C27.4646 5.7272 29.3911 6.40581 31.0855 7.57568C36.3927 11.231 39.0607 16.7931 39.1104 16.8972C39.1104 16.8972 40.1379 12.4675 36.2725 7.33004C34.8142 5.39414 32.896 3.70803 30.7582 2.42159C30.1326 2.0469 29.4822 1.70552 28.8193 1.39744C32.5853 -0.351121 38.1741 0.510668 40.9582 4.27007C46.9116 12.3259 43.8417 24.2578 38.0623 30.4943Z" fill="#4C7378"/>
        <path d="M74.8016 45.994C69.0553 39.5909 60.7321 36.6434 52.2763 38.1505C49.5213 38.5834 46.8242 39.3203 44.1396 40.0905C39.2882 41.5144 34.1261 43.0298 28.9764 43.4461C20.272 44.2829 11.0042 42.0223 5.02593 35.2029C2.36201 32.1637 0.754545 28.4376 0.273962 24.4326C-0.190049 20.5733 0.468681 16.51 2.11343 12.9879C4.90164 7.0178 10.4325 2.4882 16.8251 1.07687C19.054 0.589768 21.3823 0.498177 23.6319 0.877031C28.2845 1.63058 32.6304 4.25341 35.4559 7.96286C36.9764 9.94455 38.0743 12.2718 38.5134 14.7364C38.3602 14.4034 38.2276 14.0703 38.0577 13.7498C34.8966 7.29674 27.46 3.15016 20.3714 4.16182C19.0954 4.34917 17.8401 4.69472 16.6469 5.17349C12.504 6.85127 9.01974 10.1277 7.09327 14.1786C5.65566 17.2302 5.18336 20.7523 5.71366 24.0829C5.75095 24.2619 5.82138 24.6366 5.85452 24.8156C6.95655 30.6067 11.9405 34.8115 17.2435 36.7183C18.0638 37.0139 18.9007 37.2512 19.7459 37.4552C22.6418 38.1421 25.6413 38.317 28.6159 38.1713C36.4585 37.8674 44.0029 34.9489 51.891 34.4618C53.4032 34.3702 54.9444 34.3744 56.4566 34.5118C63.9139 35.1113 71.0729 39.4411 74.8016 45.994Z" fill="#4C7378"/>
        <path fill-rule="evenodd" clip-rule="evenodd" d="M2.11133 28.2618C2.58379 27.9725 3.05302 27.6837 3.51903 27.3968L3.5238 27.3939C5.91112 25.9443 8.3192 24.5236 10.8632 23.3809C18.6243 19.7017 27.4298 20.355 34.6586 25.0202C29.3369 19.6795 21.2908 17.3863 13.9385 18.7704C12.4435 19.0358 10.9556 19.4374 9.52079 19.9237C6.96338 20.7939 4.51948 21.9275 2.11133 23.137V28.2618Z" fill="#4C7378"/>
        <path d="M176.443 34.9886C174.059 34.9886 172.198 34.5077 170.86 33.546C169.536 32.5842 168.707 31.0998 168.372 29.0927C168.316 28.4794 168.442 28.0194 168.749 27.7128C169.055 27.4061 169.501 27.2528 170.087 27.2528C170.672 27.2528 171.097 27.3922 171.362 27.671C171.641 27.9497 171.829 28.3818 171.927 28.9672C172.136 29.929 172.582 30.591 173.265 30.9534C173.962 31.3019 175.021 31.4761 176.443 31.4761H182.464C184.262 31.4761 185.482 31.1555 186.123 30.5144C186.778 29.8593 187.105 28.6467 187.105 26.8765C187.105 25.0784 186.771 23.8519 186.102 23.1968C185.433 22.5277 184.22 22.1932 182.464 22.1932H177.279C174.644 22.1932 172.686 21.5521 171.404 20.2697C170.135 18.9735 169.501 17.0082 169.501 14.3738C169.501 11.7534 170.128 9.80903 171.383 8.54064C172.651 7.27225 174.603 6.63806 177.237 6.63806H182.213C184.429 6.63806 186.164 7.09106 187.419 7.99705C188.687 8.90304 189.489 10.2899 189.823 12.1576C189.907 12.757 189.795 13.2169 189.489 13.5375C189.182 13.8442 188.722 13.9975 188.109 13.9975C187.551 13.9975 187.133 13.8511 186.854 13.5584C186.576 13.2657 186.394 12.8406 186.311 12.2831C186.088 11.4607 185.663 10.9032 185.035 10.6105C184.408 10.3038 183.467 10.1505 182.213 10.1505H177.237C175.564 10.1505 174.442 10.4502 173.871 11.0495C173.299 11.6349 173.014 12.743 173.014 14.3738C173.014 16.0185 173.306 17.1475 173.892 17.7608C174.477 18.3741 175.606 18.6808 177.279 18.6808H182.464C185.21 18.6808 187.252 19.3498 188.59 20.6879C189.942 22.026 190.618 24.0888 190.618 26.8765C190.618 29.6502 189.949 31.6991 188.611 33.0233C187.273 34.3335 185.224 34.9886 182.464 34.9886H176.443Z" fill="black"/>
        <path d="M155.921 34.9886C155.336 34.9886 154.897 34.8422 154.604 34.5495C154.312 34.2568 154.165 33.8178 154.165 33.2324V10.1923H146.053C145.468 10.1923 145.029 10.046 144.736 9.75327C144.443 9.46057 144.297 9.02151 144.297 8.4361C144.297 7.85069 144.443 7.41163 144.736 7.11893C145.029 6.82622 145.468 6.67987 146.053 6.67987H165.79C166.375 6.67987 166.814 6.82622 167.107 7.11893C167.4 7.41163 167.546 7.85069 167.546 8.4361C167.546 9.02151 167.4 9.46057 167.107 9.75327C166.814 10.046 166.375 10.1923 165.79 10.1923H157.678V33.2324C157.678 33.7899 157.524 34.222 157.218 34.5286C156.925 34.8353 156.493 34.9886 155.921 34.9886Z" fill="black"/>
        <path d="M144.11 35.0722C143.65 35.3649 143.211 35.4555 142.793 35.344C142.375 35.2325 142.019 34.9468 141.727 34.4868L135.245 23.6986H129.391V33.2324C129.391 34.4032 128.806 34.9886 127.635 34.9886C126.464 34.9886 125.879 34.4032 125.879 33.2324V8.39429C125.879 7.22347 126.464 6.63806 127.635 6.63806H137.42C139.971 6.63806 141.922 7.32104 143.274 8.68699C144.64 10.039 145.323 11.9904 145.323 14.5411V15.7955C145.323 18.0117 144.807 19.7819 143.776 21.106C142.744 22.4162 141.253 23.2316 139.302 23.5522L144.779 32.6888C145.309 33.6644 145.086 34.4589 144.11 35.0722ZM129.391 20.1861H137.42C139.009 20.1861 140.138 19.8516 140.807 19.1825C141.476 18.5135 141.81 17.3845 141.81 15.7955V14.5411C141.81 12.9661 141.476 11.844 140.807 11.175C140.138 10.492 139.009 10.1505 137.42 10.1505H129.391V20.1861Z" fill="black"/>
        <path d="M119.19 34.9886C118.59 34.9886 118.144 34.8492 117.852 34.5704C117.573 34.2777 117.434 33.8317 117.434 33.2324V8.4361C117.434 7.82281 117.573 7.37679 117.852 7.09802C118.144 6.81925 118.59 6.67987 119.19 6.67987C119.803 6.67987 120.249 6.81925 120.528 7.09802C120.807 7.37679 120.946 7.82281 120.946 8.4361V33.2324C120.946 33.8317 120.807 34.2777 120.528 34.5704C120.249 34.8492 119.803 34.9886 119.19 34.9886Z" fill="black"/>
        <path d="M97.309 34.9886C96.1381 34.9886 95.5527 34.4032 95.5527 33.2324V8.39429C95.5527 7.22347 96.1381 6.63806 97.309 6.63806H107.094C109.644 6.63806 111.596 7.32104 112.948 8.68699C114.314 10.039 114.997 11.9904 114.997 14.5411V15.7955C114.997 18.3462 114.314 20.3046 112.948 21.6705C111.596 23.0225 109.644 23.6986 107.094 23.6986H99.0652V33.2324C99.0652 34.4032 98.4798 34.9886 97.309 34.9886ZM99.0652 20.1861H107.094C108.683 20.1861 109.812 19.8516 110.481 19.1825C111.15 18.5135 111.484 17.3845 111.484 15.7955V14.5411C111.484 12.9661 111.15 11.844 110.481 11.175C109.812 10.492 108.683 10.1505 107.094 10.1505H99.0652V20.1861Z" fill="black"/>
        <path d="M77.2572 34.9886C74.0653 34.9886 71.7028 34.229 70.1695 32.7097C68.6503 31.1765 67.8906 28.8139 67.8906 25.6221V15.9628C67.8906 12.7431 68.6572 10.3805 70.1904 8.87518C71.7237 7.3559 74.0792 6.61021 77.2572 6.63808H82.275C85.4808 6.63808 87.8433 7.39772 89.3626 8.917C90.8819 10.4363 91.6415 12.7988 91.6415 16.0046V25.6221C91.6415 28.8139 90.8819 31.1765 89.3626 32.7097C87.8433 34.229 85.4808 34.9886 82.275 34.9886H77.2572ZM77.2572 31.4762H82.275C83.7664 31.4762 84.9372 31.3019 85.7874 30.9535C86.6376 30.5911 87.237 29.9848 87.5855 29.1345C87.9479 28.2843 88.129 27.1135 88.129 25.6221V16.0046C88.129 14.5272 87.9479 13.3633 87.5855 12.5131C87.237 11.6628 86.6376 11.0565 85.7874 10.6941C84.9372 10.3317 83.7664 10.1505 82.275 10.1505H77.2572C75.7797 10.1366 74.6159 10.3039 73.7656 10.6523C72.9154 11.0008 72.3091 11.6001 71.9467 12.4504C71.5843 13.3006 71.4031 14.4714 71.4031 15.9628V25.6221C71.4031 27.1135 71.5773 28.2843 71.9258 29.1345C72.2882 29.9848 72.8945 30.5911 73.7447 30.9535C74.595 31.3019 75.7658 31.4762 77.2572 31.4762Z" fill="#4C7378"/>
        <path d="M49.8715 34.9888C48.7006 34.9888 48.1152 34.4034 48.1152 33.2326V8.39453C48.1152 7.22371 48.7006 6.63831 49.8715 6.63831C51.0423 6.63831 51.6277 7.22371 51.6277 8.39453V18.3256L62.2905 7.30734C63.0989 6.44317 63.9213 6.42923 64.7576 7.26553C65.6218 8.07395 65.6357 8.89631 64.7994 9.73261L55.9137 18.911L66.3884 31.9363C67.0992 32.8702 67.0156 33.6926 66.1375 34.4034C65.2315 35.1421 64.4091 35.0585 63.6704 34.1525L53.4466 21.4826L51.6277 23.3643V33.2326C51.6277 34.4034 51.0423 34.9888 49.8715 34.9888Z" fill="#4C7378"/>
    </symbol>


    <symbol id="gear" xmlns="http://www.w3.org/2000/svg" width="101" height="101" viewBox="0 0 101 101">
        <path d="M44.559 5.05713C46.0777 -1.00537 54.684 -1.00537 56.209 5.05713L56.6527 6.84463C56.9124 7.88342 57.4453 8.83381 58.1961 9.59718C58.947 10.3605 59.8884 10.9091 60.9228 11.1858C61.9572 11.4626 63.0467 11.4575 64.0785 11.1711C65.1102 10.8847 66.0465 10.3275 66.7902 9.55713L68.0715 8.23838C72.4152 3.74463 79.8715 8.05088 78.1527 14.0571L77.6527 15.8321C77.3584 16.8612 77.3446 17.9502 77.613 18.9864C77.8813 20.0225 78.4219 20.9681 79.1787 21.7249C79.9356 22.4817 80.8811 23.0223 81.9172 23.2906C82.9534 23.559 84.0424 23.5452 85.0715 23.2509L86.8402 22.7446C92.8402 21.0259 97.1527 28.4821 92.659 32.8259L91.3402 34.1071C90.5699 34.8508 90.0126 35.7871 89.7262 36.8189C89.4398 37.8506 89.4348 38.9402 89.7115 39.9746C89.9883 41.0089 90.5368 41.9504 91.3002 42.7012C92.0636 43.4521 93.0139 43.985 94.0527 44.2446L95.8402 44.6884C101.903 46.2071 101.903 54.8134 95.8402 56.3384L94.0527 56.7821C93.0139 57.0418 92.0636 57.5747 91.3002 58.3255C90.5368 59.0764 89.9883 60.0178 89.7115 61.0522C89.4348 62.0866 89.4398 63.1761 89.7262 64.2079C90.0126 65.2396 90.5699 66.1759 91.3402 66.9196L92.659 68.2009C97.1527 72.5446 92.8465 80.0009 86.8402 78.2821L85.0652 77.7821C84.0362 77.4878 82.9471 77.474 81.911 77.7424C80.8748 78.0107 79.9293 78.5513 79.1725 79.3081C78.4156 80.065 77.875 81.0105 77.6067 82.0466C77.3384 83.0828 77.3521 84.1718 77.6465 85.2009L78.1527 86.9696C79.8715 92.9696 72.4152 97.2821 68.0715 92.7884L66.7902 91.4696C66.0465 90.6993 65.1102 90.142 64.0785 89.8556C63.0467 89.5692 61.9572 89.5642 60.9228 89.8409C59.8884 90.1177 58.947 90.6662 58.1961 91.4296C57.4453 92.1929 56.9124 93.1433 56.6527 94.1821L56.209 95.9696C54.6902 102.032 46.084 102.032 44.559 95.9696L44.1152 94.1821C43.8556 93.1433 43.3227 92.1929 42.5718 91.4296C41.821 90.6662 40.8795 90.1177 39.8452 89.8409C38.8108 89.5642 37.7212 89.5692 36.6895 89.8556C35.6577 90.142 34.7214 90.6993 33.9777 91.4696L32.6965 92.7884C28.3527 97.2821 20.8965 92.9759 22.6152 86.9696L23.1152 85.1946C23.409 84.1662 23.4226 83.078 23.1545 82.0426C22.8864 81.0071 22.3464 80.0622 21.5905 79.3056C20.8345 78.549 19.89 78.0082 18.8548 77.7393C17.8197 77.4703 16.7314 77.4829 15.7027 77.7759L13.9277 78.2821C7.92773 80.0009 3.61523 72.5446 8.10898 68.2009L9.42773 66.9196C10.1981 66.1759 10.7553 65.2396 11.0417 64.2079C11.3281 63.1761 11.3332 62.0866 11.0564 61.0522C10.7797 60.0178 10.2311 59.0764 9.46778 58.3255C8.70442 57.5747 7.75403 57.0418 6.71523 56.7821L4.92773 56.3384C-1.13477 54.8196 -1.13477 46.2134 4.92773 44.6884L6.71523 44.2446C7.75403 43.985 8.70442 43.4521 9.46778 42.7012C10.2311 41.9504 10.7797 41.0089 11.0564 39.9746C11.3332 38.9402 11.3281 37.8506 11.0417 36.8189C10.7553 35.7871 10.1981 34.8508 9.42773 34.1071L8.10898 32.8259C3.61523 28.4821 7.92148 21.0259 13.9277 22.7446L15.7027 23.2446C16.7311 23.5384 17.8194 23.552 18.8548 23.2839C19.8902 23.0158 20.8352 22.4758 21.5918 21.7199C22.3484 20.9639 22.8892 20.0194 23.1581 18.9842C23.4271 17.9491 23.4144 16.8608 23.1215 15.8321L22.6152 14.0571C20.8965 8.05713 28.3527 3.74463 32.6965 8.23838L33.9777 9.55713C34.7214 10.3275 35.6577 10.8847 36.6895 11.1711C37.7212 11.4575 38.8108 11.4626 39.8452 11.1858C40.8795 10.9091 41.821 10.3605 42.5718 9.59718C43.3227 8.83381 43.8556 7.88342 44.1152 6.84463L44.559 5.05713ZM81.4652 53.6384H51.9465L34.234 77.2571C38.7457 79.9822 43.8736 81.5213 49.1403 81.7311C54.4069 81.941 59.641 80.8147 64.3553 78.4573C69.0695 76.0999 73.1106 72.5879 76.1022 68.2484C79.0938 63.9088 80.9388 58.8828 81.4652 53.6384ZM81.4652 47.3884C80.9388 42.1439 79.0938 37.1179 76.1022 32.7784C73.1106 28.4389 69.0695 24.9269 64.3553 22.5694C59.641 20.212 54.4069 19.0858 49.1403 19.2956C43.8736 19.5055 38.7457 21.0446 34.234 23.7696L51.9465 47.3946L81.4652 47.3884ZM29.2402 27.5259C26.0538 30.4466 23.5106 33.999 21.7728 37.9568C20.035 41.9145 19.1405 46.1909 19.1465 50.5134C19.1465 59.6071 23.034 67.7946 29.2402 73.5009L46.4777 50.5134L29.2402 27.5259Z"/>
    </symbol>

    <symbol id="arrow-right" xmlns="http://www.w3.org/2000/svg" width="15" height="28" viewBox="0 0 15 28" fill="none">
        <path fill-rule="evenodd" clip-rule="evenodd" d="M1.08015 0.923158C0.88964 0.732645 0.580758 0.732645 0.390245 0.923158C0.199732 1.11367 0.199732 1.42255 0.390244 1.61307L12.8464 14.0693L0.390161 26.5255C0.199648 26.716 0.199649 27.0249 0.390162 27.2154C0.580674 27.4059 0.889557 27.4059 1.08007 27.2154L13.8422 14.4533C13.8565 14.4419 13.8703 14.4296 13.8835 14.4164C13.9817 14.3182 14.0293 14.1884 14.0262 14.0597C14.0244 13.9374 13.9768 13.8156 13.8834 13.7222C13.8704 13.7092 13.8569 13.6972 13.843 13.686L1.08015 0.923158Z" fill="white"/>
    </symbol>

    <symbol id="arrow-right-green" xmlns="http://www.w3.org/2000/svg" width="15" height="28" viewBox="0 0 15 28" fill="none">
        <path fill-rule="evenodd" clip-rule="evenodd" d="M1.08015 0.923158C0.88964 0.732645 0.580758 0.732645 0.390245 0.923158C0.199732 1.11367 0.199732 1.42255 0.390244 1.61307L12.8464 14.0693L0.390161 26.5255C0.199648 26.716 0.199649 27.0249 0.390162 27.2154C0.580674 27.4059 0.889557 27.4059 1.08007 27.2154L13.8422 14.4533C13.8565 14.4419 13.8703 14.4296 13.8835 14.4164C13.9817 14.3182 14.0293 14.1884 14.0262 14.0597C14.0244 13.9374 13.9768 13.8156 13.8834 13.7222C13.8704 13.7092 13.8569 13.6972 13.843 13.686L1.08015 0.923158Z" fill="#4C7378"/>
    </symbol>

    <symbol id="arrow-bottom" xmlns="http://www.w3.org/2000/svg" width="28" height="15" viewBox="0 0 28 15" fill="none">
        <path fill-rule="evenodd" clip-rule="evenodd" d="M27.0197 1.75227C27.2102 1.56176 27.2102 1.25288 27.0197 1.06236C26.8292 0.871851 26.5203 0.871851 26.3298 1.06236L13.8736 13.5186L1.41735 1.06228C1.22683 0.871767 0.917952 0.871768 0.727438 1.06228C0.536926 1.25279 0.536926 1.56168 0.727438 1.75219L13.4896 14.5143C13.501 14.5286 13.5133 14.5424 13.5265 14.5556C13.6247 14.6538 13.7544 14.7014 13.8832 14.6983C14.0055 14.6965 14.1273 14.6489 14.2207 14.5555C14.2336 14.5426 14.2457 14.5291 14.2569 14.5151L27.0197 1.75227Z" fill="white"/>
    </symbol>


    <symbol id="whatsapp" xmlns="http://www.w3.org/2000/svg" width="33" height="33" viewBox="0 0 33 33" fill="none">
        <g clip-path="url(#clip0_2075_651)">
            <path d="M32.1191 16.3591C32.1191 24.9677 25.0862 31.9464 16.4087 31.9464C13.655 31.9464 11.0682 31.2421 8.81644 30.0087L0.119141 32.7708L2.95424 24.4053C1.52469 22.0575 0.701395 19.3006 0.701395 16.3581C0.702439 7.74946 7.73332 0.770752 16.4108 0.770752C25.0872 0.772839 32.1191 7.7505 32.1191 16.3591ZM16.4077 3.25629C9.1253 3.25629 3.20154 9.13518 3.20154 16.3622C3.20154 19.2297 4.13649 21.8843 5.71734 24.0442L4.06866 28.9099L9.142 27.2978C11.2289 28.6668 13.7259 29.464 16.4077 29.464C23.69 29.464 29.6159 23.5862 29.6159 16.3591C29.618 9.13518 23.6911 3.25629 16.4077 3.25629ZM24.3422 19.9497C24.2441 19.7921 23.9874 19.6961 23.6034 19.5041C23.2205 19.3121 21.3245 18.3886 20.9728 18.2634C20.618 18.1351 20.3614 18.0704 20.1047 18.4533C19.8511 18.8363 19.1123 19.6961 18.8859 19.9528C18.6615 20.2085 18.4372 20.2408 18.0522 20.0519C17.6671 19.8578 16.4254 19.4572 14.9541 18.156C13.8094 17.1417 13.0362 15.8927 12.8129 15.5097C12.5865 15.1278 12.79 14.9212 12.9809 14.7313C13.1531 14.5591 13.366 14.2847 13.559 14.0603C13.752 13.8381 13.8157 13.6805 13.944 13.4249C14.0703 13.1692 14.0066 12.947 13.9117 12.7539C13.8157 12.5619 13.0467 10.6837 12.7242 9.91883C12.4039 9.15501 12.0835 9.28127 11.8581 9.28127C11.6338 9.28127 11.3771 9.24996 11.1204 9.24996C10.8637 9.24996 10.4463 9.34283 10.0947 9.72579C9.74304 10.1087 8.74757 11.0322 8.74757 12.9125C8.74757 14.7949 10.126 16.6095 10.319 16.8641C10.5131 17.1177 12.984 21.1027 16.8981 22.6324C20.8142 24.1611 20.8142 23.6509 21.5196 23.5862C22.2271 23.5215 23.7985 22.6627 24.1178 21.7716C24.4392 20.8763 24.4392 20.1093 24.3422 19.9497Z" fill="white"/>
        </g>
        <defs>
            <clipPath id="clip0_2075_651">
            <rect width="32" height="32" fill="white" transform="translate(0.119141 0.770752)"/>
            </clipPath>
        </defs>
    </symbol>

    <symbol id="leaflet" xmlns="http://www.w3.org/2000/svg" width="278" height="170" viewBox="0 0 278 170" fill="red">
        <path opacity="0.3" fill-rule="evenodd" clip-rule="evenodd" d="M141.189 112.253C147.31 82.2702 134.083 73.8958 119.204 64.475C114.404 61.4357 109.431 58.2875 104.881 54.2697C94.0153 44.6652 90.9525 30.2969 94.6925 18.8054C101.819 20.2438 108.975 22.7648 115.27 27.1109C134.986 40.6903 144.898 61.3533 145.083 61.74C145.083 61.74 148.9 45.2838 134.54 26.1984C129.122 19.0065 121.996 12.7426 114.054 7.96355C111.73 6.57158 109.314 5.30334 106.851 4.15883C120.842 -2.33703 141.604 0.8645 151.947 14.8306C174.064 44.7579 162.659 89.0845 141.189 112.253ZM277.676 169.834C256.329 146.047 225.408 135.097 193.995 140.696C183.76 142.304 173.741 145.042 163.767 147.903L163.747 147.909C145.73 153.197 126.56 158.823 107.436 160.369C75.0998 163.478 40.6701 155.079 18.4609 129.746C8.5645 118.455 2.59279 104.613 0.807435 89.7342C-0.916357 75.3969 1.53081 60.3018 7.64104 47.2172C17.9992 25.0385 38.5462 8.21115 62.2945 2.96807C70.5748 1.15851 79.2246 0.818246 87.5819 2.22568C104.866 5.02509 121.011 14.7689 131.508 28.5494C137.156 35.9114 141.235 44.557 142.866 53.7131C142.681 53.3099 142.503 52.9067 142.327 52.5051L142.326 52.5039C141.961 51.6735 141.599 50.85 141.173 50.0476C129.43 26.0748 101.803 10.6703 75.4692 14.4286C70.7288 15.1246 66.0653 16.4083 61.6327 18.1869C46.2417 24.4199 33.2978 36.5919 26.141 51.6406C22.1575 60.0965 20.1691 69.5247 20.2332 78.9047C25.1182 76.7221 30.0797 74.7128 35.1617 72.9835C40.4919 71.1769 46.0196 69.6851 51.5736 68.6991C78.887 63.5572 108.778 72.0762 128.548 91.9169C101.693 74.5859 68.9812 72.1588 40.1488 85.827C34.0786 88.5537 28.2166 91.7064 22.4497 95.0398C27.9036 114.551 45.354 128.725 63.849 135.375C66.8964 136.473 70.0054 137.355 73.1451 138.113C83.9035 140.665 95.0465 141.314 106.097 140.773C121.152 140.19 135.911 137.013 150.703 133.829C164.538 130.851 178.402 127.867 192.564 126.993C198.182 126.652 203.907 126.668 209.525 127.178C237.229 129.405 263.824 145.49 277.676 169.834Z" fill="#F0EAD6"/>
    </symbol>

    <symbol id="checkmark" xmlns="http://www.w3.org/2000/svg" width="36" height="30" viewBox="0 0 36 30" fill="none">
        <path d="M29.5573 0.755127L11.7237 18.5888L5.93977 12.8049L0.26709 18.4776L6.05099 24.2615L11.7607 29.9713L17.4334 24.2985L35.2671 6.46491L29.5573 0.755127Z" fill="white"/>
    </symbol>


    <symbol id="lamp" xmlns="http://www.w3.org/2000/svg" width="126" height="125" viewBox="0 0 126 125" fill="none">
        <path d="M79.3642 81.9787C90.3694 71.1373 97.8173 50.8513 97.8173 37.7693C97.8173 18.8575 82.3034 3.46948 63.2409 3.46948C44.1767 3.46948 28.6646 18.8575 28.6646 37.7693C28.6646 50.989 35.9892 70.8962 46.9076 81.772C44.5552 83.6665 43.05 86.5546 43.05 89.7942V107.016C43.05 112.722 47.7149 117.35 53.4666 117.35H55.8243C56.5968 119.182 58.0899 120.794 60.3312 120.794H65.3573C67.5986 120.794 69.2375 119.182 70.1107 117.35H72.5639C78.3156 117.35 82.9805 112.722 82.9805 107.016V89.7942C82.9805 86.6683 81.576 83.8731 79.3642 81.9787ZM50.1333 107.931C50.0517 107.638 49.9944 107.335 49.9944 107.018V99.69L75.7948 88.5576C75.9458 88.9434 76.0361 89.3584 76.0361 89.7959V96.7536L50.1333 107.931ZM53.4666 86.3514H72.2062L49.9944 95.9339V89.7959C49.9944 87.8928 51.55 86.3514 53.4666 86.3514ZM35.609 37.7693C35.609 22.655 48.0048 10.3584 63.2409 10.3584C78.4753 10.3584 90.8729 22.655 90.8729 37.7693C90.8729 50.3656 82.8781 70.7429 72.1732 79.1594L72.4163 79.4625H54.7253C43.9423 71.3646 35.609 50.493 35.609 37.7693ZM72.5639 110.463H53.4666C53.3277 110.463 53.1975 110.437 53.0621 110.423L76.0361 100.51V107.018C76.0361 108.919 74.4823 110.463 72.5639 110.463Z" fill="#4C7378"/>
        <path d="M63.7112 39.8497C64.18 39.8497 64.614 39.6602 64.9421 39.3502C65.2563 39.023 65.4473 38.5752 65.4473 38.1275C65.4473 37.6797 65.2563 37.2302 64.9421 36.9047C64.3015 36.2675 63.1209 36.2675 62.4786 36.9047C62.1643 37.2302 61.9751 37.6607 61.9751 38.1275C61.9751 38.5925 62.1643 39.023 62.4786 39.3502C62.8067 39.6602 63.2598 39.8497 63.7112 39.8497Z" fill="#4C7378"/>
        <path d="M63.8831 43.2942C62.923 43.2942 62.147 44.064 62.147 45.0164V53.6275C62.147 54.5799 62.923 55.3497 63.8831 55.3497C64.8432 55.3497 65.6192 54.5799 65.6192 53.6275V45.0164C65.6192 44.064 64.8432 43.2942 63.8831 43.2942Z" fill="#4C7378"/>
        <path d="M56.583 55.4358C57.0274 55.4358 57.4718 55.267 57.8104 54.9312C58.4892 54.2578 58.4892 53.1694 57.8104 52.496L53.0777 47.8012C52.3989 47.1278 51.3017 47.1278 50.6229 47.8012C49.9441 48.4746 49.9441 49.563 50.6229 50.2364L55.3555 54.9312C55.6941 55.267 56.1385 55.4358 56.583 55.4358Z" fill="#4C7378"/>
        <path d="M71.1213 55.4358C71.5658 55.4358 72.0102 55.267 72.3487 54.9312L77.0831 50.2364C77.7619 49.563 77.7619 48.4746 77.0831 47.8012C76.4026 47.1278 75.3071 47.1278 74.6283 47.8012L69.8939 52.496C69.2151 53.1694 69.2151 54.2578 69.8939 54.9312C70.2324 55.267 70.6769 55.4358 71.1213 55.4358Z" fill="#4C7378"/>
    </symbol>



    <symbol id="youtube" width="33" height="33" viewBox="0 0 33 33" fill="none" xmlns="http://www.w3.org/2000/svg">
        <g clip-path="url(#clip0_25_1308)">
        <rect x="0.667969" y="0.445312" width="32" height="32" rx="16" fill="white"/>
        <path fill-rule="evenodd" clip-rule="evenodd" d="M100.668 0.44541H0.668184V100.445H100.668V0.44541ZM25.2481 12.044C25.0391 11.2585 24.4211 10.6389 23.6347 10.4265C22.2129 10.0454 16.5082 10.0454 16.5082 10.0454C16.5082 10.0454 10.8064 10.0454 9.38164 10.4265C8.59819 10.636 7.98013 11.2556 7.7683 12.044C7.38818 13.4694 7.38818 16.4454 7.38818 16.4454C7.38818 16.4454 7.38818 19.4214 7.7683 20.8469C7.97723 21.6323 8.59529 22.252 9.38164 22.4643C10.8064 22.8454 16.5082 22.8454 16.5082 22.8454C16.5082 22.8454 22.2129 22.8454 23.6347 22.4643C24.4182 22.2549 25.0362 21.6352 25.2481 20.8469C25.6282 19.4214 25.6282 16.4454 25.6282 16.4454C25.6282 16.4454 25.6282 13.4694 25.2481 12.044ZM14.6859 19.1887L19.4244 16.4454L14.6859 13.7021V19.1887Z" fill="#FF3000"/>
        </g>
        <defs>
        <clipPath id="clip0_25_1308">
        <rect x="0.667969" y="0.445312" width="32" height="32" rx="16" fill="white"/>
        </clipPath>
        </defs>
    </symbol>


    <symbol if="facebook" width="33" height="33" viewBox="0 0 33 33" fill="none" xmlns="http://www.w3.org/2000/svg">
        <g clip-path="url(#clip0_25_1312)">
        <rect x="0.667969" y="0.612305" width="32" height="32" rx="16" fill="white"/>
        <path fill-rule="evenodd" clip-rule="evenodd" d="M100.668 0.612305H0.667988V100.612H100.668V0.612305ZM20.7186 14.7174L20.2626 17.6117H17.91V24.6123H14.7504V17.6117H12.188V14.7174H14.7504V12.5106C14.7504 10.0007 16.2595 8.6123 18.5711 8.6123C19.3348 8.62163 20.0967 8.68663 20.8508 8.80676V11.2714H19.5559C18.3021 11.2714 17.91 12.0448 17.91 12.8362V14.7174H20.7186Z" fill="#337FFF"/>
        </g>
        <defs>
        <clipPath id="clip0_25_1312">
        <rect x="0.667969" y="0.612305" width="32" height="32" rx="16" fill="white"/>
        </clipPath>
        </defs>
    </symbol>



    <symbol id="russia" width="33" height="32" viewBox="0 0 33 32" fill="none" xmlns="http://www.w3.org/2000/svg">
        <g clip-path="url(#clip0_2175_1020)">
        <path d="M16.7676 32C25.6041 32 32.7676 24.8366 32.7676 16C32.7676 7.16344 25.6041 0 16.7676 0C7.93102 0 0.767578 7.16344 0.767578 16C0.767578 24.8366 7.93102 32 16.7676 32Z" fill="#F0F0F0"/>
        <path d="M31.7724 21.5652C32.4156 19.8319 32.7676 17.9571 32.7676 16C32.7676 14.0429 32.4156 12.1681 31.7724 10.4348H1.76277C1.11964 12.1681 0.767578 14.0429 0.767578 16C0.767578 17.9571 1.11964 19.8319 1.76277 21.5652L16.7676 22.9565L31.7724 21.5652Z" fill="#0052B4"/>
        <path d="M16.7675 32C23.6469 32 29.5116 27.658 31.7723 21.5652H1.7627C4.02338 27.658 9.88807 32 16.7675 32Z" fill="#D80027"/>
        </g>
        <defs>
        <clipPath id="clip0_2175_1020">
        <rect width="32" height="32" fill="white" transform="translate(0.767578)"/>
        </clipPath>
        </defs>
    </symbol>

    <symbol id="latvia" width="33" height="32" viewBox="0 0 33 32" fill="none" xmlns="http://www.w3.org/2000/svg">
        <g clip-path="url(#clip0_2175_1021)">
        <path d="M16.7676 32C25.6041 32 32.7676 24.8366 32.7676 16C32.7676 7.16344 25.6041 0 16.7676 0C7.93102 0 0.767578 7.16344 0.767578 16C0.767578 24.8366 7.93102 32 16.7676 32Z" fill="#F0F0F0"/>
        <path d="M16.7677 0C9.37522 0 3.15485 5.01381 1.31885 11.8261H32.2165C30.3805 5.01381 24.1601 0 16.7677 0Z" fill="#A2001D"/>
        <path d="M16.7677 32C24.1601 32 30.3805 26.9862 32.2165 20.1739H1.31885C3.15485 26.9861 9.37522 32 16.7677 32Z" fill="#A2001D"/>
        </g>
        <defs>
        <clipPath id="clip0_2175_1021">
        <rect width="32" height="32" fill="white" transform="translate(0.767578)"/>
        </clipPath>
        </defs>
    </symbol>

    <symbol id="unitedkingdom" width="33" height="32" viewBox="0 0 33 32" fill="none" xmlns="http://www.w3.org/2000/svg">
        <g clip-path="url(#clip0_2175_1022)">
        <path d="M16.7676 32C25.6041 32 32.7676 24.8366 32.7676 16C32.7676 7.16344 25.6041 0 16.7676 0C7.93102 0 0.767578 7.16344 0.767578 16C0.767578 24.8366 7.93102 32 16.7676 32Z" fill="#F0F0F0"/>
        <path d="M4.07516 6.25888C2.81835 7.89407 1.87066 9.77876 1.31885 11.8262H9.64247L4.07516 6.25888Z" fill="#0052B4"/>
        <path d="M32.2166 11.8262C31.6648 9.77882 30.717 7.89413 29.4603 6.25894L23.8931 11.8262H32.2166Z" fill="#0052B4"/>
        <path d="M1.31885 20.174C1.87072 22.2214 2.81841 24.1061 4.07516 25.7412L9.64229 20.174H1.31885Z" fill="#0052B4"/>
        <path d="M26.5087 3.30757C24.8735 2.05076 22.9888 1.10307 20.9414 0.551193V8.87476L26.5087 3.30757Z" fill="#0052B4"/>
        <path d="M7.02637 28.6924C8.66155 29.9493 10.5462 30.8969 12.5936 31.4488V23.1253L7.02637 28.6924Z" fill="#0052B4"/>
        <path d="M12.5936 0.551193C10.5462 1.10307 8.66149 2.05076 7.02637 3.30751L12.5936 8.87469V0.551193Z" fill="#0052B4"/>
        <path d="M20.9414 31.4488C22.9888 30.8969 24.8735 29.9493 26.5086 28.6925L20.9414 23.1253V31.4488Z" fill="#0052B4"/>
        <path d="M23.8931 20.174L29.4603 25.7413C30.717 24.1061 31.6648 22.2214 32.2166 20.174H23.8931Z" fill="#0052B4"/>
        <path d="M32.6321 13.9131H18.8546H18.8546V0.135438C18.1714 0.0465 17.4749 0 16.7676 0C16.0601 0 15.3638 0.0465 14.6806 0.135438V13.9129V13.913H0.903016C0.814078 14.5962 0.767578 15.2927 0.767578 16C0.767578 16.7074 0.814078 17.4038 0.903016 18.0869H14.6805H14.6806V31.8646C15.3638 31.9535 16.0601 32 16.7676 32C17.4749 32 18.1714 31.9536 18.8545 31.8646V18.0871V18.087H32.6321C32.7211 17.4038 32.7676 16.7074 32.7676 16C32.7676 15.2927 32.7211 14.5962 32.6321 13.9131Z" fill="#D80027"/>
        <path d="M20.9414 20.174L28.0812 27.3137C28.4095 26.9855 28.7228 26.6423 29.0217 26.2866L22.909 20.1739H20.9414V20.174Z" fill="#D80027"/>
        <path d="M12.5934 20.174H12.5933L5.45361 27.3137C5.78186 27.6421 6.12505 27.9553 6.4808 28.2542L12.5934 22.1414V20.174Z" fill="#D80027"/>
        <path d="M12.5934 11.8262V11.8261L5.45368 4.68625C5.12531 5.0145 4.81206 5.35769 4.51318 5.71344L10.6259 11.8261H12.5934V11.8262Z" fill="#D80027"/>
        <path d="M20.9414 11.8262L28.0812 4.68632C27.753 4.35794 27.4098 4.04469 27.054 3.74588L20.9414 9.85857V11.8262Z" fill="#D80027"/>
        </g>
        <defs>
        <clipPath id="clip0_2175_1022">
        <rect width="32" height="32" fill="white" transform="translate(0.767578)"/>
        </clipPath>
        </defs>
    </symbol>



    <symbol id="home" xmlns="http://www.w3.org/2000/svg" width="14" height="12" viewBox="0 0 14 12" fill="none">
        <path fill-rule="evenodd" clip-rule="evenodd" d="M8.30263 12V9.33333H6.30263V12H3.9693C3.79249 12 3.62292 11.9298 3.4979 11.8047C3.37287 11.6797 3.30263 11.5101 3.30263 11.3333V7.33333H1.57863C1.4468 7.3333 1.31793 7.29419 1.20833 7.22093C1.09872 7.14767 1.0133 7.04357 0.962849 6.92177C0.912402 6.79997 0.8992 6.66594 0.924912 6.53664C0.950623 6.40734 1.01409 6.28856 1.1073 6.19533L6.8313 0.471329C6.95632 0.346349 7.12586 0.276138 7.30263 0.276138C7.47941 0.276138 7.64895 0.346349 7.77397 0.471329L13.498 6.19533C13.5912 6.28856 13.6546 6.40734 13.6804 6.53664C13.7061 6.66594 13.6929 6.79997 13.6424 6.92177C13.592 7.04357 13.5065 7.14767 13.3969 7.22093C13.2873 7.29419 13.1585 7.3333 13.0266 7.33333H11.3026V11.3333C11.3026 11.5101 11.2324 11.6797 11.1074 11.8047C10.9823 11.9298 10.8128 12 10.636 12H8.30263Z" fill="white"/>
    </symbol>


    <symbol id="google" xmlns="http://www.w3.org/2000/svg" width="49" height="50" viewBox="0 0 49 50" fill="none">
        <g clip-path="url(#clip0_2204_1063)">
            <rect x="0.103516" y="0.0594788" width="48" height="49" rx="24" fill="white"/>
            <path d="M0.103516 0.0594788H100.104V100.059H0.103516V0.0594788Z" fill="white"/>
            <path d="M24.4068 17.878C26.3566 17.878 27.6718 18.7378 28.4217 19.4562L31.3521 16.5354C29.5524 14.8277 27.2103 13.7795 24.4068 13.7795C20.3458 13.7795 16.8385 16.1585 15.131 19.6211L18.4883 22.2828C19.3305 19.7271 21.661 17.878 24.4068 17.878Z" fill="#EA4335"/>
            <path d="M34.3748 24.6147C34.3748 23.7432 34.3056 23.1072 34.1556 22.4477H24.4068V26.3813H30.1292C30.0138 27.3588 29.3908 28.831 28.0064 29.8203L31.2829 32.4114C33.2442 30.5623 34.3748 27.8417 34.3748 24.6147Z" fill="#4285F4"/>
            <path d="M18.4998 26.4755C18.2806 25.816 18.1537 25.1093 18.1537 24.3791C18.1537 23.6489 18.2806 22.9423 18.4883 22.2828L15.131 19.6211C14.4273 21.0579 14.0234 22.6714 14.0234 24.3791C14.0234 26.0869 14.4272 27.7004 15.131 29.1372L18.4998 26.4755Z" fill="#FBBC05"/>
            <path d="M24.4068 34.9788C27.2103 34.9788 29.5639 34.0366 31.2829 32.4114L28.0064 29.8203C27.1296 30.4445 25.9527 30.8803 24.4068 30.8803C21.661 30.8803 19.3305 29.0312 18.4998 26.4755L15.1425 29.1372C16.85 32.5998 20.3457 34.9788 24.4068 34.9788Z" fill="#34A853"/>
        </g>
        <rect x="0.603516" y="0.559479" width="47" height="48" rx="23.5" stroke="#D9D9D9"/>
        <defs>
            <clipPath id="clip0_2204_1063">
            <rect x="0.103516" y="0.0594788" width="48" height="49" rx="24" fill="white"/>
            </clipPath>
        </defs>
    </symbol>


    <symbol id="tag" xmlns="http://www.w3.org/2000/svg" width="18" height="18" viewBox="0 0 18 18" fill="none">
        <g clip-path="url(#clip0_2175_10364)">
            <mask id="mask0_2175_10364" style="mask-type:luminance" maskUnits="userSpaceOnUse" x="0" y="0" width="18" height="18">
            <path d="M0.16503 0.988953H17.1016V17.9255H0.16503V0.988953Z" fill="white"/>
            </mask>
            <g mask="url(#mask0_2175_10364)">
            <path d="M10.6315 16.4432L3.38632 9.19804C3.23474 9.04645 3.16029 8.83418 3.18393 8.62114L3.58314 5.02836C3.61962 4.70033 3.87854 4.44137 4.20661 4.40492L7.79935 4.00573C8.01247 3.98205 8.22474 4.05651 8.37632 4.2081L15.6214 11.4532C15.897 11.7288 15.897 12.1756 15.6214 12.4512L11.6295 16.4432C11.3539 16.7188 10.9071 16.7188 10.6315 16.4432Z" stroke="white" stroke-width="0.7" stroke-linecap="round" stroke-linejoin="round"/>
            <path d="M8.13471 8.95956C7.58354 9.51074 6.6899 9.51074 6.13872 8.95956C5.58755 8.40838 5.58755 7.51475 6.13872 6.96357C6.6899 6.41239 7.58354 6.41239 8.13471 6.96357C8.68589 7.51475 8.68589 8.40838 8.13471 8.95956Z" stroke="white" stroke-width="0.7" stroke-linejoin="round"/>
            </g>
        </g>
        <defs>
            <clipPath id="clip0_2175_10364">
            <rect width="16.9365" height="16.9365" fill="white" transform="matrix(-1 0 0 1 17.1016 0.988953)"/>
            </clipPath>
        </defs>
    </symbol>


    <symbol id="pdf-file" width="48" height="48" viewBox="0 0 48 48" fill="none" xmlns="http://www.w3.org/2000/svg">
        <path d="M47.987 21.938C47.981 21.847 47.964 21.76 47.934 21.674C47.923 21.642 47.915 21.611 47.901 21.58C47.853 21.476 47.792 21.378 47.708 21.295L47.707 21.294L42 15.586V10C42 9.978 41.989 9.959 41.987 9.937C41.981 9.849 41.964 9.764 41.936 9.68C41.925 9.648 41.917 9.617 41.902 9.586C41.853 9.48 41.792 9.379 41.706 9.293L32.706 0.293C32.62 0.207 32.519 0.145 32.412 0.096C32.382 0.083 32.352 0.074 32.322 0.064C32.236 0.034 32.148 0.017 32.058 0.011C32.038 0.01 32.02 0 32 0H7C6.448 0 6 0.448 6 1V15.586L0.293 21.293L0.291 21.295C0.207 21.379 0.147 21.477 0.099 21.58C0.085 21.611 0.077 21.642 0.066 21.674C0.036 21.76 0.018 21.847 0.013 21.938C0.011 21.96 0 21.978 0 22V41C0 41.552 0.448 42 1 42H6V47C6 47.552 6.448 48 7 48H41C41.552 48 42 47.552 42 47V42H47C47.552 42 48 41.552 48 41V22C48 21.978 47.989 21.96 47.987 21.938ZM44.586 21H42V18.414L44.586 21ZM38.586 9H33V3.414L38.586 9ZM8 2H31V10C31 10.552 31.448 11 32 11H40V16V21H8V16V2ZM6 18.414V21H3.414L6 18.414ZM40 46H8V42H40V46ZM46 40H2V23H7H41H46V40Z" fill="black"/>
        <path d="M18.2538 26.72C17.9308 26.443 17.5658 26.247 17.1568 26.134C16.7488 26.021 16.3518 25.964 15.9668 25.964H12.6348V38H14.6408V33.172H16.0688C16.4878 33.172 16.8958 33.098 17.2928 32.951C17.6898 32.804 18.0408 32.577 18.3468 32.271C18.6528 31.965 18.8988 31.583 19.0868 31.123C19.2738 30.664 19.3678 30.129 19.3678 29.517C19.3678 28.837 19.2628 28.27 19.0528 27.817C18.8428 27.364 18.5768 26.998 18.2538 26.72ZM16.9708 31.005C16.6648 31.339 16.2738 31.506 15.7978 31.506H14.6418V27.681H15.7978C16.2738 27.681 16.6648 27.828 16.9708 28.123C17.2768 28.418 17.4298 28.888 17.4298 29.534C17.4298 30.18 17.2768 30.67 16.9708 31.005Z" fill="black"/>
        <path d="M30.7227 38H32.7797V32.832H35.8567V31.081H32.7637V27.8H36.1117V25.964H30.7227V38Z" fill="black"/>
        <path d="M24.0758 25.964H21.0498V38H24.0588C25.6118 38 26.7878 37.476 27.5868 36.428C28.3858 35.379 28.7848 33.903 28.7848 31.999C28.7848 30.095 28.3858 28.613 27.5868 27.553C26.7878 26.494 25.6178 25.964 24.0758 25.964ZM26.5498 33.843C26.4198 34.371 26.2348 34.81 25.9978 35.161C25.7598 35.512 25.4768 35.776 25.1478 35.951C24.8188 36.127 24.4618 36.215 24.0768 36.215H23.1078V27.749H24.0768C24.4618 27.749 24.8188 27.837 25.1478 28.013C25.4768 28.188 25.7598 28.452 25.9978 28.803C26.2358 29.154 26.4198 29.596 26.5498 30.129C26.6798 30.662 26.7458 31.285 26.7458 31.999C26.7458 32.702 26.6798 33.316 26.5498 33.843Z" fill="black"/>
    </symbol>


    <symbol id="whatsapp-btn" width="27" height="27" viewBox="0 0 27 27" fill="none" xmlns="http://www.w3.org/2000/svg">
        <path d="M0 26.2828L1.88573 19.2774C0.364936 16.5485 -0.118235 13.364 0.524878 10.3084C1.16799 7.25281 2.89425 4.53102 5.38688 2.64249C7.87952 0.753965 10.9713 -0.174621 14.095 0.02713C17.2186 0.228881 20.1645 1.54744 22.3921 3.74084C24.6198 5.93425 25.9797 8.85537 26.2224 11.9682C26.465 15.081 25.5742 18.1767 23.7132 20.6872C21.8523 23.1977 19.1462 24.9547 16.0913 25.6356C13.0365 26.3166 9.83797 25.8759 7.08262 24.3944L0 26.2828ZM7.42413 21.773L7.86215 22.0322C9.85791 23.2121 12.1889 23.7003 14.4919 23.4209C16.795 23.1414 18.9406 22.1099 20.5945 20.4871C22.2484 18.8643 23.3177 16.7413 23.6357 14.4491C23.9537 12.1568 23.5026 9.82403 22.3526 7.81422C21.2026 5.80442 19.4184 4.2305 17.278 3.33774C15.1376 2.44498 12.7613 2.28353 10.5193 2.87855C8.27728 3.47357 6.2956 4.79163 4.88303 6.62734C3.47046 8.46305 2.70636 10.7133 2.70981 13.0274C2.70793 14.9461 3.23993 16.8278 4.2466 18.4628L4.52129 18.9145L3.46707 22.8245L7.42413 21.773Z" fill="white"/>
        <path fill-rule="evenodd" clip-rule="evenodd" d="M18.0553 14.8262C17.7985 14.6196 17.4978 14.4742 17.1762 14.401C16.8545 14.3279 16.5204 14.3289 16.1992 14.4041C15.7167 14.604 15.4049 15.3594 15.093 15.737C15.0273 15.8276 14.9307 15.8911 14.8213 15.9156C14.712 15.9401 14.5974 15.924 14.4991 15.8703C12.7324 15.1801 11.2516 13.9144 10.2971 12.2788C10.2156 12.1767 10.1771 12.0471 10.1896 11.9173C10.202 11.7874 10.2645 11.6675 10.3639 11.5827C10.7116 11.2393 10.967 10.8139 11.1063 10.346C11.1372 9.82987 11.0187 9.31575 10.7648 8.86496C10.5685 8.23296 10.195 7.67021 9.68828 7.24321C9.42695 7.12597 9.13719 7.08666 8.85396 7.13003C8.57074 7.17339 8.30614 7.29757 8.09209 7.48758C7.72049 7.80737 7.42554 8.20623 7.22895 8.65479C7.03237 9.10334 6.93916 9.59017 6.9562 10.0794C6.95734 10.3542 6.99225 10.6277 7.06014 10.894C7.23253 11.5337 7.49764 12.1449 7.84709 12.7083C8.09921 13.1398 8.3743 13.5576 8.67117 13.9598C9.63597 15.2808 10.8487 16.4025 12.2422 17.2625C12.9414 17.6995 13.6887 18.0548 14.4694 18.3214C15.2804 18.6881 16.1757 18.8289 17.0604 18.7287C17.5645 18.6526 18.0421 18.4541 18.4512 18.1507C18.8603 17.8472 19.1883 17.4481 19.4065 16.9885C19.5346 16.7109 19.5735 16.4004 19.5178 16.0999C19.3842 15.4852 18.5601 15.1224 18.0553 14.8262Z" fill="white"/>
    </symbol>



</svg>